HIERARCHY
ROOT Hips
{
  OFFSET 0 89.5177 0.535
  CHANNELS 6 Xposition Yposition Zposition Zrotation Xrotation Yrotation
  JOINT Spine
  {
    OFFSET 12.0259 -0.162855 1.69034e-005
    CHANNELS 3 Zrotation Xrotation Yrotation
    JOINT Spine1
    {
      OFFSET 15.3169 -0.0121922 0
      CHANNELS 3 Zrotation Xrotation Yrotation
      JOINT Spine2
      {
        OFFSET 15.3176 -0.0121908 0
        CHANNELS 3 Zrotation Xrotation Yrotation
        JOINT Neck
        {
          OFFSET 19.9142 1.56338 0
          CHANNELS 3 Zrotation Xrotation Yrotation
          JOINT Head
          {
            OFFSET 6.92651 0 0
            CHANNELS 3 Zrotation Xrotation Yrotation
            End Site
            {
              OFFSET 20.7666 0 0
            }
          }
          JOINT LeftShoulder
          {
            OFFSET -6.20654 0.708824 7.28219
            CHANNELS 3 Zrotation Xrotation Yrotation
            JOINT LeftArm
            {
              OFFSET 14.108 0 -1.52588e-005
              CHANNELS 3 Zrotation Xrotation Yrotation
              JOINT LeftForeArm
              {
                OFFSET 28.5802 0 0
                CHANNELS 3 Zrotation Xrotation Yrotation
                JOINT LeftHand
                {
                  OFFSET 27.092 0 0
                  CHANNELS 3 Zrotation Xrotation Yrotation
                  End Site
                  {
                    OFFSET 9.55928 -0.186424 0.145352
                  }
                }
              }
            }
          }
          JOINT RightShoulder
          {
            OFFSET -6.20654 0.708866 -7.28218
            CHANNELS 3 Zrotation Xrotation Yrotation
            JOINT RightArm
            {
              OFFSET 14.108 0 1.52588e-005
              CHANNELS 3 Zrotation Xrotation Yrotation
              JOINT RightForeArm
              {
                OFFSET 28.5802 0 0
                CHANNELS 3 Zrotation Xrotation Yrotation
                JOINT RightHand
                {
                  OFFSET 27.092 0 0
                  CHANNELS 3 Zrotation Xrotation Yrotation
                  End Site
                  {
                    OFFSET 9.55929 -0.186417 -0.145354
                  }
                }
              }
            }
          }
        }
      }
    }
  }
  JOINT LeftUpLeg
  {
    OFFSET 0.005 -0.535 8.837
    CHANNELS 3 Zrotation Xrotation Yrotation
    JOINT LeftLeg
    {
      OFFSET 39.9035 0 0
      CHANNELS 3 Zrotation Xrotation Yrotation
      JOINT LeftFoot
      {
        OFFSET 39.6689 0 0
        CHANNELS 3 Zrotation Xrotation Yrotation
        JOINT LeftToe
        {
          OFFSET 10.1624 13.6296 0
          CHANNELS 3 Zrotation Xrotation Yrotation
          End Site
          {
            OFFSET 8.38147 0 0
          }
        }
      }
    }
  }
  JOINT RightUpLeg
  {
    OFFSET 0.005 -0.535 -8.837
    CHANNELS 3 Zrotation Xrotation Yrotation
    JOINT RightLeg
    {
      OFFSET 39.9035 0 0
      CHANNELS 3 Zrotation Xrotation Yrotation
      JOINT RightFoot
      {
        OFFSET 39.6689 0 0
        CHANNELS 3 Zrotation Xrotation Yrotation
        JOINT RightToe
        {
          OFFSET 10.1624 13.6296 0
          CHANNELS 3 Zrotation Xrotation Yrotation
          End Site
          {
            OFFSET 8.38147 0 0
          }
        }
      }
    }
  }
}
MOTION
Frames:	12
Frame Time:	0.0333333
210.264 89.7636 -39.5604 22.1638 -83.9219 -61.584 1.76951 -1.16538 -1.32464 3.51304 -2.36109 -2.61346 3.51304 -2.36109 -2.61347 -8.30828e-012 -9.0191e-006 -5.27751e-005 7.04024 0.481758 -4.65524 -178.637 -15.1678 -84.8037 9.8097 -63.712 30.6165 -11.8778 3.18055e-015 1.59028e-015 -62.2914 -28.5004 -56.9211 178.578 13.5791 96.0349 89.2822 66.4229 -103.873 -7.18657 1.59028e-015 3.97569e-016 -50.4227 25.0613 49.444 6.18419 3.46454 175.751 -12.4496 7.95139e-016 -5.96354e-016 11.5096 7.00045 -14.6936 90 2.37299e-015 9.93923e-017 13.26 -5.12011 174.845 -4.74257 0 -4.96962e-017 13.6322 -3.9812 8.27156 90 -1.7549e-015 -3.97569e-016 
210.274 89.7656 -39.5784 22.7493 -83.9136 -60.9852 1.76767 -1.16437 -1.31791 3.50922 -2.36807 -2.59995 3.50922 -2.36807 -2.59996 -8.30828e-012 -9.0191e-006 -5.27751e-005 6.91169 0.448869 -4.73934 -178.629 -15.183 -84.7799 9.94433 -63.7312 30.683 -11.9011 -3.18055e-015 -0 -62.3026 -28.4533 -56.832 178.579 13.6234 96.0106 89.8337 66.34 -104.339 -7.15939 0 -0 -50.306 24.9825 49.2443 6.18134 3.45484 175.761 -12.4299 0 -1.98785e-016 11.5138 7.04918 -14.7994 90 2.01347e-015 -4.96962e-017 13.2622 -5.15672 174.855 -4.73067 0 1.98785e-016 13.6142 -3.96169 8.23043 90 2.4289e-015 3.97569e-016 
210.283 89.7647 -39.5896 23.3034 -83.9159 -60.4283 1.75815 -1.16762 -1.31086 3.49026 -2.37414 -2.58595 3.49026 -2.37414 -2.58596 -8.30867e-012 -9.0191e-006 -5.27751e-005 6.86269 0.499666 -4.77119 -178.646 -15.1904 -84.8438 10.326 -63.8088 30.9693 -11.8914 -3.18055e-015 -1.59028e-015 -62.3137 -28.3288 -56.6624 178.589 13.6129 95.9735 89.6644 66.3404 -104.051 -7.18519 -3.97569e-016 -0 -50.5201 24.9262 49.3644 6.14714 3.48073 175.782 -12.4382 2.38542e-015 3.97569e-016 11.5508 7.09998 -14.9099 90 -1.78906e-015 -1.49088e-016 13.243 -5.22775 174.869 -4.72788 -3.97569e-016 -9.93923e-017 13.6112 -3.96344 8.23394 90 -1.06847e-015 -0 
210.294 89.764 -39.6005 23.8431 -83.9143 -59.8792 1.7478 -1.17149 -1.30387 3.46963 -2.38132 -2.57208 3.46963 -2.38132 -2.57209 -8.30748e-012 -9.0191e-006 -5.27751e-005 6.8753 0.600331 -4.76987 -178.644 -15.2222 -84.8489 10.3798 -63.9576 30.9601 -11.7678 6.36111e-015 -1.59028e-015 -62.2393 -28.3494 -56.5345 178.594 13.6069 95.9555 89.5688 66.3486 -103.858 -7.17489 -3.97569e-016 7.95139e-016 -50.2571 25.155 49.3696 6.14391 3.37719 175.782 -12.3916 1.59028e-015 3.97569e-016 11.5133 7.07 -14.8445 90 3.75594e-015 4.96962e-017 13.2547 -5.22101 174.877 -4.69834 1.98785e-016 -9.93923e-017 13.5895 -3.94009 8.18474 90 8.82107e-016 -3.97569e-016 
210.294 89.7632 -39.6181 24.1253 -83.909 -59.5683 1.73756 -1.17485 -1.30269 3.44908 -2.3879 -2.56982 3.44908 -2.3879 -2.56983 -8.30669e-012 -9.0191e-006 -5.27751e-005 6.86671 0.717737 -4.75411 -178.634 -15.2458 -84.8202 10.2717 -63.9253 30.747 -11.8557 -9.54166e-015 -1.59028e-015 -62.3709 -28.362 -56.6879 178.59 13.6594 95.9518 89.2651 66.3375 -103.58 -7.22723 -3.97569e-016 -0 -50.1754 25.1918 49.2762 6.1859 3.32154 175.741 -12.3075 7.95139e-016 -0 11.4577 7.05857 -14.8198 90 -2.19828e-015 -9.93923e-017 13.2621 -5.27443 174.854 -4.68044 0 -4.96962e-017 13.5868 -3.9538 8.21364 90 -7.88927e-016 -0 
210.302 89.762 -39.6316 24.5124 -83.894 -59.1642 1.73272 -1.17687 -1.3017 3.43894 -2.39757 -2.57443 3.43894 -2.39757 -2.57444 -8.30708e-012 -9.0191e-006 -5.27751e-005 6.72925 0.905749 -4.70655 -178.629 -15.2516 -84.8008 10.2833 -64.007 30.6559 -11.9454 -3.18055e-015 -4.77083e-015 -62.2728 -28.4994 -56.8631 178.603 13.6927 95.8814 88.3519 66.3583 -102.709 -7.45145 -7.95139e-016 -3.97569e-016 -50.3044 25.1286 49.3337 6.12813 3.40873 175.761 -12.423 7.95139e-016 1.98785e-016 11.5868 7.147 -15.0123 90 -8.01351e-016 -0 13.2717 -5.32306 174.852 -4.67817 1.98785e-016 1.49089e-016 13.64 -3.95515 8.21641 90 1.10885e-015 -0 
210.307 89.7614 -39.6362 24.6774 -83.8555 -58.9757 1.73386 -1.1784 -1.30085 3.4413 -2.39369 -2.57901 3.4413 -2.39369 -2.57902 -8.30788e-012 -9.0191e-006 -5.27751e-005 6.52625 1.11568 -4.65594 -178.651 -15.2145 -84.8719 10.52 -64.0727 30.7976 -11.9479 6.36111e-015 -0 -62.2075 -28.5106 -56.6318 178.616 13.7297 95.8104 88.5238 66.3073 -102.821 -7.51529 3.97569e-016 -7.95139e-016 -50.3207 25.1083 49.2092 6.13242 3.38484 175.747 -12.469 -7.95139e-016 -3.97569e-016 11.5646 7.15455 -15.0284 90 -1.38295e-015 -7.45442e-017 13.2911 -5.36969 174.839 -4.70199 3.97569e-016 -1.98785e-016 13.6732 -3.95523 8.21661 90 -2.26739e-016 -0 
210.325 89.7609 -39.6269 24.9777 -83.8471 -58.6555 1.72813 -1.18015 -1.29993 3.42972 -2.3984 -2.57838 3.42972 -2.3984 -2.57839 -8.30748e-012 -9.0191e-006 -5.27751e-005 6.3021 1.30479 -4.63244 -178.66 -15.1715 -84.8938 10.6204 -64.0211 30.7723 -11.9324 -9.54166e-015 -3.18055e-015 -62.1731 -28.5288 -56.5736 178.625 13.7056 95.7829 88.5483 66.221 -102.756 -7.50999 3.97569e-016 1.19271e-015 -50.3916 25.1342 49.3209 6.18322 3.21926 175.725 -12.32 -7.95139e-016 -1.98785e-016 11.5036 7.11977 -14.9528 90 1.25172e-015 -1.49088e-016 13.2865 -5.33313 174.842 -4.69909 -1.98785e-016 9.93923e-017 13.6475 -3.9111 8.12386 90 4.1838e-015 -7.95139e-016 
210.336 89.7603 -39.6181 25.2799 -83.84 -58.355 1.71984 -1.1833 -1.29876 3.4135 -2.4043 -2.56321 3.4135 -2.4043 -2.56322 -8.30748e-012 -9.0191e-006 -5.27751e-005 6.09742 1.43249 -4.59266 -178.637 -15.1922 -84.8126 10.3743 -63.9996 30.4823 -11.8499 0 -3.18055e-015 -62.151 -28.5793 -56.5736 178.63 13.6927 95.7677 88.6301 66.1356 -102.727 -7.42606 -7.95139e-016 -7.95139e-016 -50.2922 24.8679 49.0991 6.13218 3.33627 175.747 -12.3732 -7.95139e-016 1.98785e-016 11.5405 7.14762 -15.0135 90 -1.18805e-016 9.93923e-017 13.2705 -5.37671 174.853 -4.69738 -3.97569e-016 -4.96962e-017 13.6458 -3.92885 8.16117 90 3.81418e-015 7.95139e-016 
210.35 89.7618 -39.5974 25.5808 -83.8281 -58.0346 1.71235 -1.18964 -1.29712 3.39846 -2.41674 -2.55879 3.39846 -2.41674 -2.5588 -8.30788e-012 -9.0191e-006 -5.27751e-005 5.95999 1.41259 -4.61714 -178.633 -15.217 -84.8064 10.5577 -64.079 30.6416 -11.8448 3.18055e-015 -1.59028e-015 -62.1613 -28.6042 -56.6168 178.635 13.6923 95.7503 88.6942 66.0182 -102.761 -7.41791 3.97569e-016 3.97569e-016 -50.2635 25.0907 49.2027 6.10425 3.35764 175.749 -12.3839 2.38542e-015 1.19271e-015 11.5371 7.1941 -15.1145 90 -7.99798e-017 7.45442e-017 13.2722 -5.3621 174.855 -4.66703 3.97569e-016 -0 13.5844 -3.89751 8.0952 90 -2.54693e-016 -3.97569e-016 
210.359 89.7629 -39.5818 26.0282 -83.8153 -57.5772 1.70397 -1.19353 -1.29104 3.38174 -2.42415 -2.5467 3.38174 -2.42415 -2.54671 -8.30788e-012 -9.0191e-006 -5.27751e-005 5.83153 1.33279 -4.62413 -178.638 -15.1673 -84.8065 10.8216 -64.1362 30.8383 -11.8269 -6.36111e-015 3.18055e-015 -62.1711 -28.561 -56.6238 178.64 13.7023 95.7238 88.9971 65.9441 -103.004 -7.40362 3.97569e-016 -3.97569e-016 -50.2602 25.0466 49.1655 6.08016 3.25748 175.745 -12.379 -7.95139e-016 1.98785e-016 11.5071 7.20163 -15.1307 90 4.86091e-016 -0 13.2702 -5.39919 174.861 -4.63836 3.97569e-016 9.93923e-017 13.5877 -3.8912 8.0819 90 -1.67414e-015 3.97569e-016 
210.369 89.7647 -39.5518 25.8924 -83.7976 -57.6904 1.70709 -1.19353 -1.28977 3.38672 -2.42415 -2.54415 3.38672 -2.42415 -2.54416 -8.30828e-012 -9.0191e-006 -5.27751e-005 5.70664 1.20615 -4.63232 -178.634 -15.1768 -84.7949 10.8887 -64.1198 30.9044 -11.8417 -3.18055e-015 -0 -62.1519 -28.6232 -56.6809 178.64 13.7011 95.7249 89.2225 65.8608 -103.199 -7.37491 -7.95139e-016 -1.59028e-015 -50.176 25.0088 49.0403 6.1164 3.18465 175.708 -12.3024 -7.95139e-016 -5.96354e-016 11.3987 7.10997 -14.9311 90 1.11506e-015 -2.23633e-016 13.2716 -5.37464 174.848 -4.64976 3.97569e-016 9.93923e-017 13.5536 -3.87939 8.05721 90 -1.64308e-015 -0 
